<?xml version="1.0" standalone="no"?><!DOCTYPE svg PUBLIC "-//W3C//DTD SVG 1.1//EN" "http://www.w3.org/Graphics/SVG/1.1/DTD/svg11.dtd"><svg t="1601730333131" class="icon" viewBox="0 0 1024 1024" version="1.1" xmlns="http://www.w3.org/2000/svg" p-id="6058" xmlns:xlink="http://www.w3.org/1999/xlink" width="16" height="16"><defs><style type="text/css"></style></defs><path d="M942.6 383.8H640.1V81.3c0-44-36-80-80-80h-96.2c-44 0-80 36-80 80v302.5H81.4c-44 0-80 36-80 80V560c0 44 36 80 80 80h302.5v302.5c0 44 36 80 80 80h96.2c44 0 80-36 80-80V640.1h302.5c44 0 80-36 80-80v-96.2c0-44.1-36-80.1-80-80.1z" p-id="6059" fill="#000000"></path></svg>