<?xml version="1.0" standalone="no"?><!DOCTYPE svg PUBLIC "-//W3C//DTD SVG 1.1//EN" "http://www.w3.org/Graphics/SVG/1.1/DTD/svg11.dtd"><svg t="1601045882127" class="icon" viewBox="0 0 1024 1024" version="1.1" xmlns="http://www.w3.org/2000/svg" p-id="5347" xmlns:xlink="http://www.w3.org/1999/xlink" width="32" height="32"><defs><style type="text/css"></style></defs><path d="M85.333333 585.813333a42.666667 42.666667 0 0 1 42.666667 42.666667v185.642667a42.666667 42.666667 0 0 0 42.666667 42.666666h682.666666a42.666667 42.666667 0 0 0 42.666667-42.666666V628.48a42.666667 42.666667 0 1 1 85.333333 0v185.642667a128 128 0 0 1-128 128H170.666667a128 128 0 0 1-128-128V628.48a42.666667 42.666667 0 0 1 42.666666-42.666667z" fill="#d81e06" p-id="5348"></path><path d="M341.333333 128a42.666667 42.666667 0 0 1 42.666667-42.666667h256a42.666667 42.666667 0 0 1 42.666667 42.666667v247.168h128a42.666667 42.666667 0 0 1 28.330666 74.581333l-298.666666 264.832a42.666667 42.666667 0 0 1-56.618667 0l-298.666667-264.832A42.666667 42.666667 0 0 1 213.333333 375.168h128V128z m85.333334 42.666667v247.168a42.666667 42.666667 0 0 1-42.666667 42.666666H325.76L512 625.621333l186.24-165.12H640a42.666667 42.666667 0 0 1-42.666667-42.666666V170.666667h-170.666666z" fill="#d81e06" p-id="5349"></path></svg>