<?xml version="1.0" standalone="no"?><!DOCTYPE svg PUBLIC "-//W3C//DTD SVG 1.1//EN" "http://www.w3.org/Graphics/SVG/1.1/DTD/svg11.dtd"><svg t="1600699560517" class="icon" viewBox="0 0 1024 1024" version="1.1" xmlns="http://www.w3.org/2000/svg" p-id="1253" xmlns:xlink="http://www.w3.org/1999/xlink" width="200" height="200"><defs><style type="text/css"></style></defs><path d="M203.44 126h278.44v358.32H124V205.44A79.44 79.44 0 0 1 203.44 126z" fill="#868E96" p-id="1254"></path><path d="M302.94 376.88a12 12 0 0 1-12-12v-119.44a12 12 0 1 1 24 0v119.44a12 12 0 0 1-12 12z" fill="#FFFFFF" p-id="1255"></path><path d="M362.58 317.16h-119.28a12 12 0 0 1 0-24h119.3a12 12 0 0 1 0 24z" fill="#FFFFFF" p-id="1256"></path><path d="M481.88 126h278.42a79.44 79.44 0 0 1 79.44 79.44v278.88H481.88V126z" fill="#686F77" p-id="1257"></path><path d="M720.46 317.16h-119.3a12 12 0 0 1 0-24h119.3a12 12 0 0 1 0 24z" fill="#FFFFFF" p-id="1258"></path><path d="M481.88 484.32h357.86V763.2a79.44 79.44 0 0 1-79.44 79.44H481.88V484.32z" fill="#686F77" p-id="1259"></path><path d="M124 484.32h357.88v358.3H203.44A79.44 79.44 0 0 1 124 763.2V484.32z" fill="#495057" p-id="1260"></path><path d="M260.76 717.7a12 12 0 0 1-8.48-20.5l84.36-84.46a12 12 0 0 1 16.96 16.98l-84.36 84.46a12 12 0 0 1-8.48 3.52z" fill="#FFFFFF" p-id="1261"></path><path d="M345.12 717.7a12 12 0 0 1-8.48-3.52l-84.36-84.46a12 12 0 0 1 16.96-16.98l84.36 84.46a12 12 0 0 1-8.48 20.5z" fill="#FFFFFF" p-id="1262"></path><path d="M429.52 660.48a237.52 237.24 90 1 0 474.48 0 237.52 237.24 90 1 0-474.48 0Z" fill="#38D9A9" p-id="1263"></path><path d="M720.46 633.7h-119.3a12 12 0 0 1 0-24h119.28a12 12 0 0 1 0 24zM720.46 711.26h-119.3a12 12 0 0 1 0-24h119.28a12 12 0 0 1 0 24z" fill="#FFFFFF" p-id="1264"></path></svg>